<?xml version="1.0" encoding="UTF-8"?>
<svg width="512" height="512" viewBox="0 0 512 512" fill="none" xmlns="http://www.w3.org/2000/svg">
    <!-- Soil -->
    <path d="M256 448C344.366 448 416 376.366 416 288C416 199.634 344.366 128 256 128C167.634 128 96 199.634 96 288C96 376.366 167.634 448 256 448Z" fill="#8B4513"/>
    
    <!-- Seed -->
    <path d="M256 128C256 128 224 192 224 256C224 320 256 384 256 384C256 384 288 320 288 256C288 192 256 128 256 128Z" fill="#A0522D"/>
    
    <!-- Sprout -->
    <path d="M256 128C256 128 224 64 192 32C160 0 128 32 128 64C128 96 160 128 192 128C224 128 256 96 256 96" fill="#228B22"/>
    <path d="M256 128C256 128 288 64 320 32C352 0 384 32 384 64C384 96 352 128 320 128C288 128 256 96 256 96" fill="#228B22"/>
    
    <!-- Leaf -->
    <path d="M192 128C192 128 160 96 128 96C96 96 64 128 64 160C64 192 96 224 128 224C160 224 192 192 192 192" fill="#32CD32"/>
    <path d="M320 128C320 128 352 96 384 96C416 96 448 128 448 160C448 192 416 224 384 224C352 224 320 192 320 192" fill="#32CD32"/>
</svg> 